# xmcd CD database file
#
# Track frame offsets:
#	150
#	6565
#	14627
#	42825
#	54677
#	70532
#	88190
#	95327
#	102555
#	114672
#	120877
#	129520
#	140227
#	150457
#	165610
#	181830
#	187227
#	197345
#	208880
#
# Disc length: 3016 seconds
#
# Revision: 1
# Processed by: cddbd v1.5.2PL0 Copyright (c) Steve Scherf et al.
# Submitted via: CDex 1.51
#
DISCID=0f0bc613
DTITLE=fastilio - fastilio
DYEAR=1995
DGENRE=Jazz
TTITLE0=Song for Fastilio
TTITLE1=Gummy Bär
TTITLE2=Diplomatica
TTITLE3=Looking at the Windside
TTITLE4=Rade
TTITLE5=El
TTITLE6=Brass Bolognese
TTITLE7=Vitesse de Bande
TTITLE8=Antonio e Cleopatra
TTITLE9=Niverso
TTITLE10=Carte du Fonds des Oceans
TTITLE11=El Gringo
TTITLE12=Paracelsus
TTITLE13=Jack
TTITLE14=Dora Baltea
TTITLE15=Fastilio
TTITLE16=Il Pozzo
TTITLE17=Bass
TTITLE18=Scorlinas
EXTD=YEAR: 1995
EXTT0=
EXTT1=
EXTT2=
EXTT3=
EXTT4=
EXTT5=
EXTT6=
EXTT7=
EXTT8=
EXTT9=
EXTT10=
EXTT11=
EXTT12=
EXTT13=
EXTT14=
EXTT15=
EXTT16=
EXTT17=
EXTT18=
PLAYORDER=
